<svg xmlns="http://www.w3.org/2000/svg" viewBox="0 0 1024 1024">
  <path fill="#000000" d="M169.8,958.4C162.3,942.5 149.6,915.1 141.5,897.5C133.4,879.9 125.3,862.2 123.4,858.2L120.0,850.8L121.9,847.1C123.0,845.1 134.9,818.9 148.3,789.0C180.1,718.4 183.6,710.8 185.2,709.9C185.9,709.5 190.3,708.5 195.0,707.6C199.7,706.7 211.8,704.2 222.0,702.0C239.5,698.3 279.8,689.8 305.0,684.4C311.3,683.0 324.1,680.4 333.5,678.4C342.9,676.5 357.5,673.4 366.0,671.5C374.5,669.6 384.7,667.4 388.6,666.6L395.8,665.2L419.6,656.2C432.8,651.2 459.2,641.3 478.5,634.0C497.8,626.7 518.9,618.8 525.5,616.3C532.1,613.8 538.4,611.1 539.4,610.2C541.3,608.5 580.9,565.9 651.0,490.0C671.5,467.7 692.3,445.3 697.2,440.2C702.0,435.1 706.0,430.6 706.0,430.1C706.0,429.7 719.1,400.8 735.1,365.9C751.1,331.0 764.4,301.4 764.6,300.0C764.8,298.6 765.9,287.6 767.0,275.5C768.2,263.4 770.2,243.4 771.5,231.0C773.8,209.7 775.4,194.1 780.1,146.0C787.1,73.7 789.8,47.0 790.6,41.7L791.2,37.8L798.0,49.7C801.7,56.2 808.4,68.5 813.0,77.0C825.1,99.5 851.7,148.0 880.1,199.1L904.8,243.8L901.4,274.6C896.5,320.1 893.2,348.9 890.5,372.5C886.5,405.9 884.2,426.2 882.0,445.0C880.9,454.6 879.1,469.7 878.0,478.5C876.9,487.3 875.6,498.6 875.0,503.5C874.5,508.4 873.5,516.5 873.0,521.5C872.4,526.5 871.5,534.9 871.0,540.3L870.0,550.1L861.6,563.8C857.0,571.3 845.3,590.8 835.5,607.0C825.7,623.2 807.7,652.9 795.5,673.0C783.3,693.1 766.0,721.5 757.1,736.2L740.9,762.9L713.7,783.3C698.7,794.5 672.3,814.5 655.0,827.6C637.7,840.7 583.6,881.4 534.8,918.1L446.0,984.8L415.8,985.4C399.1,985.7 340.0,986.3 284.4,986.6L183.4,987.2L169.8,958.4ZM396.9,968.5C417.5,968.2 434.6,967.8 434.8,967.5C435.4,967.0 436.0,960.8 442.0,895.6C444.2,872.0 445.8,852.4 445.5,852.2C445.3,852.0 440.7,854.1 435.3,857.0C429.9,859.9 412.4,869.2 396.5,877.8C380.6,886.3 364.4,894.9 360.5,897.0C353.9,900.5 279.7,940.0 243.0,959.5C233.9,964.3 225.8,968.7 225.0,969.1L223.5,970.0L291.5,969.5C328.9,969.2 376.3,968.8 396.9,968.5ZM202.8,961.7C214.7,955.6 261.5,930.7 393.1,860.6C423.5,844.4 435.8,837.4 435.2,836.9C434.3,836.1 411.7,825.6 393.5,817.5C385.8,814.0 354.8,800.1 324.5,786.5C294.2,772.9 262.5,758.7 254.0,755.0C245.5,751.2 228.6,743.7 216.5,738.2L194.5,728.1L193.9,728.8C193.5,729.2 188.6,739.9 183.0,752.5C177.4,765.1 165.2,792.3 155.9,812.7C146.6,833.2 139.0,850.3 139.0,850.7C139.0,851.6 152.0,880.2 172.0,923.0C179.8,939.8 187.6,956.6 189.3,960.3C190.9,964.0 192.6,966.9 192.9,966.8C193.2,966.6 197.7,964.3 202.8,961.7ZM477.1,920.5C581.1,788.9 592.2,774.8 591.6,774.2C591.2,773.9 497.2,823.3 483.7,830.9C482.0,831.9 476.8,834.6 472.2,836.9L464.0,841.2L463.6,843.3C463.3,844.5 462.7,851.1 462.0,858.0C461.4,864.9 459.4,887.4 457.5,908.0C455.6,928.6 454.0,946.4 454.0,947.5L454.0,949.4L454.9,948.5C455.3,947.9 465.3,935.4 477.1,920.5ZM536.0,896.6C581.3,862.5 639.6,818.6 683.9,785.0C698.8,773.7 711.0,764.2 711.0,763.9C711.0,763.3 694.5,761.5 658.5,758.0C647.0,756.9 635.5,755.8 633.0,755.5L628.5,755.1L618.9,767.3C613.6,774.0 585.5,809.8 556.4,846.9C527.3,883.9 500.8,917.6 497.6,921.7C494.3,925.9 492.1,929.1 492.6,928.9C493.1,928.7 512.7,914.1 536.0,896.6ZM471.4,818.6C475.8,816.2 483.8,812.0 489.0,809.2C494.2,806.5 505.5,800.5 514.0,796.0C522.5,791.4 534.2,785.2 540.0,782.2C545.8,779.2 551.0,776.4 551.5,776.0C552.0,775.6 557.7,772.6 564.0,769.3C598.3,751.4 608.0,746.2 610.2,744.3L611.8,742.9L605.6,732.7C599.6,722.8 597.1,718.8 590.5,708.5C588.8,705.8 585.5,700.6 583.3,697.0C577.2,687.1 564.1,666.1 560.5,660.5C558.7,657.8 553.8,649.9 549.5,643.0C545.2,636.1 541.3,630.1 540.9,629.7L540.2,628.8L533.4,631.4C529.6,632.7 523.4,635.0 519.5,636.4C515.6,637.9 511.6,639.4 510.5,639.9C506.1,641.8 497.7,645.0 496.9,645.0C496.4,645.0 494.1,645.9 491.7,646.9C487.2,649.0 477.6,652.5 472.0,654.2C470.1,654.7 468.1,655.6 467.5,656.0C466.9,656.4 464.0,657.5 461.0,658.5C458.0,659.5 455.1,660.6 454.5,661.0C453.9,661.4 451.9,662.2 450.0,662.8C446.7,663.8 440.2,666.2 426.5,671.5C423.2,672.8 418.9,674.4 417.0,675.1C415.1,675.7 412.5,676.7 411.4,677.3L409.2,678.2L410.6,682.9C411.3,685.4 413.5,691.8 415.4,697.0C417.4,702.2 419.0,707.0 419.0,707.7C419.0,708.3 419.9,710.9 421.0,713.5C422.1,716.0 423.2,719.1 423.4,720.3C423.6,721.5 424.8,724.7 425.9,727.3C427.1,730.0 428.0,732.7 428.0,733.3C428.0,733.9 428.9,736.7 429.9,739.5C431.9,744.8 436.1,756.3 439.0,764.5C440.0,767.2 442.0,772.9 443.5,777.0C445.0,781.1 447.1,786.9 448.1,789.8C452.1,800.9 453.8,805.7 456.3,812.5C457.7,816.4 459.0,820.3 459.4,821.2L459.9,823.0L461.6,823.0C462.5,823.0 466.9,821.0 471.4,818.6ZM439.9,817.2C439.3,815.7 436.8,808.6 434.3,801.5C431.9,794.4 428.3,784.5 426.5,779.5C424.7,774.5 420.2,762.0 416.5,751.5C407.6,726.2 394.4,689.1 393.2,685.9L392.2,683.3L385.3,684.6C378.5,685.9 359.8,689.8 328.2,696.6C319.0,698.5 306.3,701.2 300.0,702.5C293.7,703.8 284.2,705.8 279.0,707.0C268.0,709.4 248.7,713.5 238.5,715.5C229.2,717.3 218.9,719.8 218.4,720.2C218.2,720.4 225.8,724.0 235.3,728.2C244.8,732.5 260.6,739.6 270.5,744.0C280.4,748.5 302.0,758.2 318.5,765.5C335.0,772.9 369.0,788.1 394.0,799.4C419.0,810.6 439.8,819.9 440.2,819.9C440.6,820.0 440.5,818.8 439.9,817.2ZM740.4,731.0C759.4,700.2 826.1,590.0 826.7,588.3C827.3,586.9 800.3,609.2 705.0,689.0C651.2,734.1 644.8,739.4 645.7,739.7C646.1,739.8 653.9,740.6 663.0,741.5C678.4,742.9 714.1,746.5 722.0,747.3C723.9,747.6 726.6,747.7 727.9,747.6L730.2,747.5L740.4,731.0ZM670.2,636.5C729.3,518.3 739.0,498.6 739.0,497.9C739.0,497.5 722.1,508.6 701.5,522.4C615.7,579.8 556.8,619.5 556.4,620.1C556.0,620.8 575.0,651.7 607.3,703.2L623.5,728.9L624.1,728.2C624.5,727.8 645.3,686.5 670.2,636.5ZM693.5,676.9C757.6,623.2 794.5,592.3 818.5,572.0C831.7,560.9 843.6,550.9 845.0,549.8L847.5,547.8L844.5,545.3C842.9,544.0 832.5,536.0 821.5,527.7C810.5,519.4 797.5,509.4 792.5,505.5C787.5,501.6 779.4,495.4 774.3,491.7L765.1,485.1L761.1,492.3C756.1,501.5 652.0,710.7 652.0,711.7C652.0,712.1 653.7,710.8 655.8,708.9C657.8,706.9 674.8,692.5 693.5,676.9ZM626.5,552.5C639.7,543.6 671.2,522.5 696.5,505.5C721.8,488.6 743.4,473.9 744.4,472.9L746.3,471.2L729.5,460.0L712.7,448.9L710.7,450.7C709.6,451.7 689.1,473.6 665.2,499.5C641.2,525.4 616.6,551.9 610.6,558.4C604.5,565.0 600.2,570.0 601.0,569.5C601.8,569.0 613.3,561.4 626.5,552.5ZM850.3,510.2C849.6,499.9 848.1,477.8 847.0,461.0C845.9,444.2 844.7,428.0 844.5,425.0C844.3,422.0 843.5,411.9 842.9,402.5C842.3,393.1 841.7,385.4 841.5,385.2C841.3,385.0 830.8,398.3 798.0,439.9C793.8,445.2 786.7,454.3 782.2,460.1L774.0,470.8L781.3,476.2C789.8,482.5 825.0,509.2 840.0,520.8C845.8,525.2 850.7,528.9 851.0,528.9C851.3,529.0 851.0,520.6 850.3,510.2ZM763.7,456.2C765.3,454.2 775.8,440.9 787.1,426.6C814.5,391.9 828.8,373.5 833.0,367.7L836.5,362.8L835.0,361.7C826.8,355.2 777.7,318.8 776.7,318.5L775.5,318.0L769.3,331.8C765.9,339.3 757.2,358.3 750.0,374.0C729.5,418.6 722.8,433.8 723.2,434.9C723.3,435.4 730.4,440.4 738.9,445.9C747.3,451.5 755.4,456.9 756.9,458.0C758.3,459.1 759.8,460.0 760.2,460.0C760.5,460.0 762.1,458.3 763.7,456.2ZM867.4,424.0C870.4,399.2 874.1,367.3 875.6,354.5C875.8,352.3 876.9,343.3 877.9,334.5C880.5,312.6 881.1,306.5 880.6,307.1C880.1,307.6 863.1,348.3 859.8,357.0L857.3,363.5L858.1,376.5C859.0,389.1 861.3,423.2 862.6,443.3C863.0,448.7 863.4,452.9 863.6,452.7C863.8,452.6 865.5,439.6 867.4,424.0ZM830.4,309.2C823.4,267.8 816.7,229.3 812.9,207.5C811.2,197.6 809.5,187.2 809.1,184.5C807.2,171.9 799.5,126.1 799.4,126.3C799.2,126.4 797.3,145.0 795.1,167.5C792.8,190.1 789.2,225.8 787.0,247.0C784.8,268.2 782.7,288.9 782.4,293.0L781.8,300.5L808.1,320.2C822.6,331.1 834.8,340.0 835.1,340.0C835.4,340.0 833.3,326.2 830.4,309.2ZM861.9,306.7C867.1,294.0 874.7,275.5 878.7,265.8C882.7,256.1 886.0,247.4 886.0,246.5C886.0,245.7 873.5,222.4 858.2,194.7C842.9,167.1 826.9,138.2 822.6,130.5L814.9,116.5L815.5,119.5C816.3,124.2 825.8,180.6 829.0,200.0C830.6,209.6 833.5,226.7 835.5,238.0C837.5,249.3 840.6,267.3 842.5,278.0C844.3,288.7 847.1,304.8 848.6,313.8C850.2,322.7 851.7,330.0 852.0,330.0C852.3,330.0 856.7,319.5 861.9,306.7Z"/>
</svg>
